<?xml version="1.0" encoding="utf-8"?>
<!-- Generator: Adobe Illustrator 26.3.1, SVG Export Plug-In . SVG Version: 6.00 Build 0)  -->
<svg version="1.1" id="Capa_1" xmlns="http://www.w3.org/2000/svg" xmlns:xlink="http://www.w3.org/1999/xlink" x="0px" y="0px"
	 viewBox="0 0 22 22" style="enable-background:new 0 0 22 22;" xml:space="preserve">
<style type="text/css">
	.st0{fill-rule:evenodd;clip-rule:evenodd;fill:#FFFFFF;}
</style>
<path class="st0" d="M16.2,12.3c0,0.4-0.3,0.7-0.7,0.7H6.5c-0.4,0-0.7-0.3-0.7-0.7c0-0.4,0.3-0.7,0.7-0.7h9.1
	C15.9,11.6,16.2,11.9,16.2,12.3z M16.2,7.2c0,0.4-0.3,0.7-0.7,0.7H6.5c-0.4,0-0.7-0.3-0.7-0.7s0.3-0.7,0.7-0.7h9.1
	C15.9,6.6,16.2,6.9,16.2,7.2z M20.6,17.8l-2.8,2.6l-3-2.8c-0.3-0.2-0.7-0.2-0.9,0l-3,2.8l-3-2.8c-0.3-0.3-0.7-0.3-0.9,0l-3,2.8
	l-2.8-2.6V4c0-1.5,1.2-2.7,2.7-2.7h13.8c1.5,0,2.7,1.2,2.7,2.7V17.8z M17.9,0H4.1C1.8,0,0,1.8,0,4v14c0,0,0,0,0,0
	c0,0.2,0.1,0.4,0.2,0.5l3.4,3.3c0.3,0.2,0.7,0.3,0.9,0l3-2.8l3,2.8c0.3,0.3,0.7,0.3,0.9,0l3-2.8l3,2.8c0.1,0.1,0.3,0.2,0.5,0.2
	c0.2,0,0.3-0.1,0.5-0.2l3.4-3.3c0.1-0.1,0.2-0.3,0.2-0.5c0,0,0,0,0,0V4C22,1.8,20.2,0,17.9,0z"/>
</svg>
