<?xml version="1.0" encoding="utf-8"?>
<!-- Generator: Adobe Illustrator 26.3.1, SVG Export Plug-In . SVG Version: 6.00 Build 0)  -->
<svg version="1.1" id="Capa_1" xmlns="http://www.w3.org/2000/svg" xmlns:xlink="http://www.w3.org/1999/xlink" x="0px" y="0px"
	 viewBox="0 0 19 22" style="enable-background:new 0 0 19 22;" xml:space="preserve">
<style type="text/css">
	.st0{fill-rule:evenodd;clip-rule:evenodd;}
</style>
<path class="st0" d="M8.8,20.8v-7.4c0-0.6-0.5-1.1-1.1-1.1l-6.4,0.1l9-11.2v7.4c0,0.6,0.5,1.1,1.1,1.1l6.4-0.1L8.8,20.8z M18.9,9.1
	c-0.2-0.4-0.6-0.7-1.1-0.7h-6.3V1.2c0-0.5-0.3-1-0.8-1.1c-0.5-0.2-1,0-1.3,0.4L0.3,11.6C0,12-0.1,12.5,0.1,12.9
	c0.2,0.4,0.6,0.7,1.1,0.7h6.3v7.2c0,0.5,0.3,1,0.8,1.1C8.5,22,8.6,22,8.7,22c0.4,0,0.7-0.2,0.9-0.5l9.1-11.2
	C19,10,19.1,9.5,18.9,9.1z"/>
</svg>
