<?xml version="1.0" encoding="utf-8"?>
<!-- Generator: Adobe Illustrator 26.3.1, SVG Export Plug-In . SVG Version: 6.00 Build 0)  -->
<svg version="1.1" id="Capa_1" xmlns="http://www.w3.org/2000/svg" xmlns:xlink="http://www.w3.org/1999/xlink" x="0px" y="0px"
	 viewBox="0 0 19 22" style="enable-background:new 0 0 19 22;" xml:space="preserve">
<style type="text/css">
	.st0{fill-rule:evenodd;clip-rule:evenodd;}
</style>
<path class="st0" d="M17.7,13.1h-7.6V7.6l2.2,2.2c0.1,0.1,0.3,0.2,0.4,0.2c0.2,0,0.3-0.1,0.4-0.2c0.2-0.2,0.2-0.6,0-0.9L11,6.7h4.2
	c1.4,0,2.5,1.1,2.5,2.5V13.1z M17.7,18.2c0,1.4-1.1,2.5-2.5,2.5h-5.1v-6.4h7.6V18.2z M10.1,3.4c0-1.2,1-2.1,2.1-2.1
	c1.2,0,2.1,0.9,2.1,2.1c0,1.2-1,2.1-2.1,2.1h-2.1V3.4z M8.9,5.5H6.7c-1.2,0-2.1-0.9-2.1-2.1c0-1.2,1-2.1,2.1-2.1
	c1.2,0,2.1,0.9,2.1,2.1V5.5z M8.9,13.1H1.3V9.2c0-1.4,1.1-2.5,2.5-2.5H8L5.7,8.9c-0.2,0.2-0.2,0.6,0,0.9C6,10,6.4,10,6.6,9.8
	l2.2-2.2V13.1z M8.9,20.7H3.8c-1.4,0-2.5-1.1-2.5-2.5v-3.9h7.6V20.7z M15.2,5.5h-0.3c0.5-0.6,0.8-1.3,0.8-2.1c0-1.8-1.5-3.4-3.4-3.4
	c-1.1,0-2.2,0.6-2.8,1.4C8.9,0.6,7.9,0,6.7,0C4.9,0,3.3,1.5,3.3,3.4c0,0.8,0.3,1.5,0.8,2.1H3.8C1.7,5.5,0,7.1,0,9.2v9
	C0,20.3,1.7,22,3.8,22h5.6c0,0,0.1,0,0.1,0c0,0,0.1,0,0.1,0h5.6c2.1,0,3.8-1.7,3.8-3.7v-9C19,7.1,17.3,5.5,15.2,5.5z"/>
</svg>
